<?xml version="1.0" encoding="utf-8"?>
<!DOCTYPE svg PUBLIC "-//W3C//DTD SVG 1.0//EN" "http://www.w3.org/TR/2001/REC-SVG-20010904/DTD/svg10.dtd">
<svg version="1.0" xmlns="http://www.w3.org/2000/svg" width="300px" height="300px" viewBox="0 0 300 300" preserveAspectRatio="xMidYMid meet">
 <g fill="currentColor">
  <path d="M146.37 290.83 c-1.11 -0.82 -9.73 -16.67 -13.01 -23.99 -1.41 -3.08 -1.61 -3.13 -8.70 -2.84 -3.72 0.15 -4.39 -0.12 -5.27 -1.96 -0.82 -1.70 -0.53 -5.36 0.59 -7.41 1.14 -2.08 2.20 -2.90 7.76 -6.15 7.12 -4.13 11.37 -7.32 17.96 -13.48 3.13 -2.93 3.57 -3.25 4.54 -3.25 0.59 0 1.29 0.18 1.52 0.38 0.23 0.21 1.85 1.99 3.54 4.01 5.45 6.42 9.93 10.43 18.78 16.73 2.20 1.58 3.05 3.02 3.46 5.89 0.29 1.88 -0.03 5.07 -0.62 6.12 -0.44 0.88 -1.49 1.44 -2.64 1.44 -0.56 0 -2.61 -0.47 -4.54 -1.03 -6.06 -1.79 -6.42 -1.58 -8.94 4.75 -1.85 4.69 -5.13 10.14 -10.25 16.96 -1.58 2.14 -3.08 3.93 -3.31 4.01 -0.23 0.09 -0.62 0 -0.88 -0.18z"/>
  <path d="M185.30 253.13 c-4.07 -0.56 -7.94 -2.40 -13.48 -6.39 -4.34 -3.16 -11.54 -10.22 -15.50 -15.23 -5.01 -6.33 -5.48 -6.33 -12.39 0.29 -8.12 7.76 -18.16 14.53 -25.28 16.99 -2.55 0.88 -3.08 0.97 -6.45 0.97 -3.52 0 -3.75 -0.03 -5.63 -0.94 -2.05 -0.97 -2.72 -1.76 -2.46 -2.84 0.09 -0.35 1.44 -1.85 3.02 -3.28 3.78 -3.46 4.95 -5.16 8 -11.40 2.96 -6.06 4.31 -8.12 7.50 -11.34 5.21 -5.27 13.68 -9.58 21.42 -10.93 2.96 -0.53 10.49 -0.59 12.74 -0.12 6.62 1.38 11.60 4.22 16.61 9.52 4.04 4.28 6.77 8.91 9.81 16.76 2.61 6.65 3.40 8.12 7.12 12.74 1.85 2.26 2.11 2.96 1.55 4.01 -0.56 1.03 -3.63 1.58 -6.59 1.17z"/>
  <path d="M163.33 206.66 c-5.01 -1.76 -12.48 -2.58 -17.43 -1.90 -1.38 0.18 -3.84 0.67 -5.51 1.08 -2.87 0.73 -3.02 0.73 -3.75 0.26 -0.70 -0.44 -0.76 -0.64 -0.62 -1.82 0.12 -1.08 0.82 -2.31 4.01 -7.06 2.14 -3.13 4.39 -6.80 5.01 -8.09 1.93 -4.07 2.02 -5.10 2.02 -20.74 0 -15.41 0.03 -15.29 -1.99 -16.44 -1.23 -0.73 -3.90 -0.94 -5.98 -0.53 -3.28 0.70 -4.92 2.61 -7.38 8.53 -1.93 4.60 -2.43 5.54 -5.01 9.40 -3.46 5.13 -3.75 5.80 -3.90 8.91 -0.09 2.43 -0.03 2.75 0.70 4.10 2.96 5.48 3.31 6.59 2.26 7.53 -0.88 0.76 -1.64 0.85 -3.43 0.38 -4.78 -1.26 -8.94 -4.72 -11.13 -9.32 -1.67 -3.52 -2.08 -5.24 -2.05 -9.14 0.06 -6.15 1.79 -10.46 6.83 -17.05 0.97 -1.23 1.70 -2.34 1.61 -2.49 -0.23 -0.38 -2.29 -0.26 -3.66 0.21 -1.35 0.50 -4.45 2.55 -11.69 7.73 -6.53 4.69 -8.32 5.45 -9.52 4.13 -0.59 -0.64 -0.64 -0.38 1 -4.98 2.29 -6.45 2.37 -15.03 0.18 -22.24 -1.11 -3.75 -0.97 -4.42 1.08 -4.42 1.35 0 1.79 0.21 7.03 3.40 5.07 3.08 7.91 4.51 11.07 5.57 l2.49 0.85 15.18 0.09 15.15 0.09 0.85 -0.85 c1.64 -1.61 1.49 -6.09 -0.26 -8.53 -0.88 -1.20 -1.96 -1.79 -9.46 -5.27 -1.41 -0.64 -4.22 -2.26 -6.24 -3.54 -4.48 -2.93 -5.86 -3.54 -8.20 -3.75 -2.46 -0.18 -4.16 0.29 -7.18 2.02 -2.55 1.44 -3.75 1.76 -4.28 1.08 -1.44 -1.85 0.23 -6.86 3.43 -10.31 2.02 -2.20 4.37 -3.72 7.27 -4.72 1.88 -0.67 2.93 -0.82 6.21 -0.94 3.43 -0.15 4.34 -0.06 6.45 0.47 3.16 0.79 5.89 2.08 9.55 4.54 l2.90 1.93 0.09 -1.29 c0.18 -2.64 -0.56 -4.04 -7.18 -13.36 -3.28 -4.63 -4.54 -7.09 -4.42 -8.61 0.09 -1.20 0.09 -1.20 1.38 -1.29 0.79 -0.06 1.85 0.12 2.78 0.50 3.69 1.49 7.12 2.14 12.33 2.29 5.21 0.15 5.45 0.12 13.68 -1.76 1.05 -0.23 1.46 -0.23 1.82 0.06 1.20 1 0.29 3.08 -4.51 10.43 -1.79 2.75 -3.84 6.18 -4.57 7.65 -2.05 4.19 -2.17 5.07 -2.17 18.11 0 10.81 0.03 11.48 0.59 12.63 1.52 3.16 7.29 3.75 10.61 1.03 1.11 -0.91 2.55 -3.49 4.63 -8.29 0.70 -1.58 1.90 -3.96 2.72 -5.27 3.31 -5.48 3.75 -6.33 4.19 -8.44 0.56 -2.70 0.35 -4.34 -0.91 -7.59 -1.38 -3.49 -1.46 -3.98 -0.91 -4.83 1.20 -1.82 6.33 -0.26 9.81 2.96 1.99 1.85 3.60 4.45 4.63 7.59 0.67 2.08 0.76 2.81 0.79 6.59 0.03 3.57 -0.09 4.60 -0.64 6.53 -0.79 2.72 -2.37 6.01 -4.60 9.38 -0.88 1.38 -1.61 2.64 -1.61 2.81 0 0.21 0.62 0.32 1.49 0.32 1.93 0 3.52 -0.79 7.88 -3.93 7.82 -5.63 11.51 -7.79 13.27 -7.79 1.85 0 2.08 0.91 0.94 3.90 -1.35 3.60 -1.96 7.53 -1.99 12.36 0 4.72 0.41 7.56 1.70 11.89 0.85 2.81 0.79 3.69 -0.35 3.96 -1.46 0.38 -3.28 -0.59 -10.93 -5.86 -2.49 -1.73 -5.48 -3.60 -6.59 -4.13 -3.78 -1.82 -4.45 -1.90 -18.84 -1.90 -13.97 0 -14.71 0.06 -15.26 1.52 -0.85 2.26 -0.56 7.29 0.59 9.87 1.05 2.43 2.31 3.40 7.82 6.06 2.90 1.41 6.68 3.52 8.85 4.98 4.13 2.72 6.33 3.63 8.96 3.63 1.79 0 4.07 -0.79 5.98 -2.05 1.08 -0.70 1.61 -0.88 2.99 -0.88 2.14 0 2.49 0.47 1.99 2.70 -0.79 3.69 -4.45 8.50 -8.20 10.69 -6.18 3.63 -13.97 3.81 -20.60 0.50 -1.96 -1 -4.89 -2.84 -7 -4.37 -1.70 -1.26 -2.11 -0.47 -1.29 2.34 0.53 1.67 1.67 3.57 5.65 9.35 4.54 6.53 6.12 10.14 5.01 11.25 -0.53 0.53 -1.90 0.38 -4.19 -0.41z"/>
  <path d="M49.04 191.31 c-0.97 -0.38 -1.44 -2.14 -1.44 -5.42 0 -3.46 0.56 -5.74 2.20 -9.08 3.28 -6.71 10.96 -15.85 17.58 -20.95 3.43 -2.61 6.01 -5.24 6.21 -6.30 0.38 -1.93 0.03 -2.43 -5.30 -7.79 -5.51 -5.48 -8.09 -8.64 -12.13 -14.77 -4.57 -6.91 -5.83 -10.20 -5.89 -15.09 -0.03 -3.13 0.67 -6.47 1.70 -8 0.50 -0.73 0.88 -0.97 1.70 -1.03 0.97 -0.09 1.17 0.06 2.46 1.61 3.78 4.54 6.27 6.33 11.92 8.55 9.49 3.78 14.47 8.41 19.22 17.87 6.21 12.36 5.89 24.58 -0.94 34.75 -5.19 7.73 -11.95 12.98 -21.15 16.41 -6.04 2.26 -8 3.37 -11.28 6.45 -3.19 2.96 -3.69 3.25 -4.86 2.78z"/>
  <path d="M244.22 189.11 c-2.99 -3.25 -5.07 -4.72 -10.11 -7 -4.78 -2.17 -6.33 -3.08 -9.55 -5.60 -4.07 -3.16 -7.35 -7.29 -9.76 -12.22 -3.02 -6.18 -4.01 -11.16 -3.78 -18.54 0.15 -5.04 0.85 -8.53 2.34 -11.92 1.93 -4.37 6.59 -9.90 11.19 -13.36 3.13 -2.37 8.32 -4.83 13.71 -6.53 5.95 -1.88 8.41 -3.16 11.89 -6.12 3.02 -2.58 3.93 -2.87 4.63 -1.46 1 1.96 -0.03 8.50 -1.93 12.39 -2.14 4.42 -8.64 12.28 -13.65 16.58 -1.61 1.38 -3.87 3.22 -4.98 4.10 -4.28 3.31 -5.42 4.72 -5.42 6.62 0 1.58 0.56 2.43 4.28 6.36 6.59 6.94 9.52 11.04 13.33 18.54 3.08 6.06 3.63 8.06 3.63 12.74 0 3.60 -0.50 5.68 -1.64 7.15 -1.03 1.29 -1.70 1 -4.19 -1.73z"/>
  <path d="M36.42 176.92 c-1.14 -0.32 -2.34 -1.73 -2.61 -3.05 -0.12 -0.67 0.09 -1.99 0.62 -4.01 1.52 -5.77 1.55 -6.68 0.35 -7.79 -0.35 -0.32 -2.23 -1.14 -4.16 -1.82 -6.24 -2.20 -9.81 -4.28 -17.05 -9.90 -2.17 -1.67 -3.60 -2.99 -3.60 -3.28 0 -1 12.01 -8.44 19.04 -11.78 6.06 -2.90 6.18 -2.96 6.88 -3.90 0.53 -0.70 0.59 -1.23 0.59 -5.98 0 -5.83 0.03 -5.89 2.05 -6.80 1.38 -0.64 4.07 -0.73 5.77 -0.21 1.76 0.53 3.69 2.46 5.65 5.68 5.30 8.67 8.53 12.89 14.71 19.19 4.34 4.42 4.66 4.98 3.90 6.42 -0.15 0.29 -1.90 1.90 -3.87 3.60 -6.47 5.54 -10.11 9.55 -15.85 17.61 -2.99 4.16 -4.34 5.39 -6.65 6.04 -1.26 0.35 -4.51 0.32 -5.77 -0.03z"/>
  <path d="M256.49 176.87 c-2.90 -1.17 -3.93 -2.37 -7.32 -8.70 -3.72 -6.94 -6.39 -10.66 -11.69 -16.41 -1.58 -1.70 -3.19 -3.57 -3.60 -4.16 -1.23 -1.82 -0.79 -2.52 4.19 -6.53 5.48 -4.42 8.67 -7.65 13.45 -13.65 2.14 -2.67 4.31 -5.16 4.83 -5.54 4.39 -3.13 10.63 -2.55 11.31 1.05 0.12 0.59 -0.09 2.17 -0.47 3.93 -0.76 3.60 -0.85 5.68 -0.32 6.94 0.41 1 0.29 0.94 6.27 3.72 4.60 2.14 16.61 10.28 16.61 11.28 0 0.73 -0.85 1.44 -4.69 3.87 -1.85 1.17 -5.01 3.16 -7.03 4.45 -2.02 1.26 -5.45 3.22 -7.62 4.31 -5.71 2.87 -5.86 3.11 -5.86 8.82 0 4.39 -0.32 5.54 -1.82 6.30 -1.20 0.64 -5.01 0.85 -6.24 0.32z"/>
  <path d="M147.51 88.95 c-7.24 -1.17 -12.42 -3.96 -18.02 -9.55 -4.86 -4.83 -6.86 -8.20 -10.25 -17.14 -2.14 -5.63 -3.31 -7.79 -5.98 -11.16 -1.61 -2.02 -2.05 -2.78 -2.05 -3.54 0 -1.26 0.38 -1.58 2.08 -1.88 6.06 -1 10.99 0.91 19.72 7.59 3.75 2.87 5.95 4.95 9.67 9.05 7.35 8.14 8.17 8.88 9.90 8.88 1.26 0 3.02 -1.32 7.94 -5.98 7.12 -6.74 12.30 -10.55 18.63 -13.65 4.13 -2.05 6.04 -2.61 9.81 -2.84 4.80 -0.29 7.68 0.62 7.85 2.46 0.09 0.79 -0.23 1.20 -2.46 3.34 -2.84 2.75 -4.34 4.83 -5.54 7.79 -2.23 5.36 -4.04 9.08 -5.51 11.28 -4.95 7.44 -12.69 12.74 -21.74 14.88 -3.34 0.82 -10.58 1.05 -14.06 0.47z"/>
  <path d="M148.48 63.22 c-7.79 -8.47 -10.25 -10.72 -17.14 -15.64 -4.10 -2.93 -5.07 -3.93 -5.80 -5.95 -0.94 -2.67 -0.35 -7.12 1.14 -8.50 1.11 -1.05 2.37 -1.05 6.06 -0.06 6.21 1.67 6.71 1.41 9.02 -4.39 1.82 -4.54 4.07 -8.47 8.38 -14.47 3.87 -5.39 4.66 -6.27 5.36 -5.83 0.56 0.35 0.62 0.47 3.66 6.71 4.57 9.35 8.64 17.20 9.32 17.90 1.29 1.38 2.23 1.67 6.30 1.90 4.80 0.26 5.98 0.59 7.12 1.88 2.20 2.49 1.76 6.01 -1.05 8.70 -0.62 0.59 -3.54 2.61 -6.47 4.48 -6.86 4.34 -10.25 6.88 -15.18 11.51 -6.86 6.42 -6.50 6.36 -10.72 1.76z"/>
 </g>
</svg>
